<svg xmlns="http://www.w3.org/2000/svg" viewBox="36 28 184 200" fill="none" role="img" aria-label="Seawater electrolysis for microgrids">
  <defs>
    <linearGradient id="sem-accent" x1="48" y1="40" x2="208" y2="216" gradientUnits="userSpaceOnUse">
      <stop stop-color="#22d3ee"/>
      <stop offset="0.5" stop-color="#38bdf8"/>
      <stop offset="1" stop-color="#3b82f6"/>
    </linearGradient>
    <linearGradient id="sem-water" x1="72" y1="168" x2="184" y2="220" gradientUnits="userSpaceOnUse">
      <stop stop-color="#22d3ee"/>
      <stop offset="0.55" stop-color="#0ea5e9"/>
      <stop offset="1" stop-color="#0369a1"/>
    </linearGradient>
    <linearGradient id="sem-catalyst" x1="108" y1="92" x2="148" y2="168" gradientUnits="userSpaceOnUse">
      <stop stop-color="#67e8f9"/>
      <stop offset="1" stop-color="#0891b2"/>
    </linearGradient>
    <radialGradient id="sem-glow" cx="128" cy="132" r="96" gradientUnits="userSpaceOnUse">
      <stop stop-color="#38bdf8" stop-opacity="0.2"/>
      <stop offset="1" stop-color="#020b1a" stop-opacity="0"/>
    </radialGradient>
  </defs>

  <circle cx="128" cy="132" r="108" fill="url(#sem-glow)"/>

  <path d="M128 36a92 92 0 0 1 78.4 44.2" stroke="url(#sem-accent)" stroke-width="2.25" stroke-linecap="round" opacity="0.55"/>
  <path d="M206.4 80.2 198 88.6l8.4 8.4" stroke="#38bdf8" stroke-width="2.25" stroke-linecap="round" stroke-linejoin="round" opacity="0.7"/>
  <path d="M128 220a92 92 0 0 1-78.4-44.2" stroke="url(#sem-accent)" stroke-width="2.25" stroke-linecap="round" opacity="0.55"/>
  <path d="M49.6 175.8 58 167.4l-8.4-8.4" stroke="#22d3ee" stroke-width="2.25" stroke-linecap="round" stroke-linejoin="round" opacity="0.7"/>

  <g opacity="0.95">
    <rect x="58" y="48" width="34" height="22" rx="2" stroke="#1d4ed8" stroke-width="2"/>
    <line x1="62" y1="54" x2="88" y2="54" stroke="#2563eb" stroke-width="1.25" opacity="0.65"/>
    <line x1="62" y1="60" x2="88" y2="60" stroke="#2563eb" stroke-width="1.25" opacity="0.65"/>
    <line x1="62" y1="66" x2="88" y2="66" stroke="#2563eb" stroke-width="1.25" opacity="0.65"/>
    <line x1="75" y1="48" x2="75" y2="70" stroke="#2563eb" stroke-width="1.25" opacity="0.65"/>
    <circle cx="75" cy="40" r="8" stroke="#f59e0b" stroke-width="1.75"/>
    <path d="M75 34v12M69 40h12" stroke="#f59e0b" stroke-width="1.5" stroke-linecap="round"/>
  </g>

  <rect x="104" y="78" width="48" height="88" rx="4" stroke="#1d4ed8" stroke-width="2.75"/>
  <rect x="110" y="86" width="36" height="10" rx="2" fill="url(#sem-catalyst)" opacity="0.95"/>
  <rect x="110" y="102" width="36" height="10" rx="2" fill="url(#sem-catalyst)" opacity="0.75"/>
  <rect x="110" y="118" width="36" height="10" rx="2" fill="url(#sem-catalyst)" opacity="0.95"/>
  <rect x="110" y="134" width="36" height="10" rx="2" fill="url(#sem-catalyst)" opacity="0.75"/>
  <rect x="110" y="150" width="36" height="10" rx="2" fill="url(#sem-catalyst)" opacity="0.95"/>

  <line x1="128" y1="70" x2="128" y2="78" stroke="#0891b2" stroke-width="2.75" stroke-linecap="round"/>
  <line x1="128" y1="166" x2="128" y2="176" stroke="#059669" stroke-width="2.75" stroke-linecap="round"/>

  <g opacity="0.9">
    <circle cx="118" cy="96" r="4" fill="#6ee7b7"/>
    <circle cx="142" cy="108" r="3.2" fill="#6ee7b7"/>
    <circle cx="136" cy="88" r="2.8" fill="#34d399"/>
    <circle cx="124" cy="118" r="3.5" fill="#6ee7b7"/>
    <text x="160" y="92" fill="#047857" font-size="10" font-family="system-ui, sans-serif" font-weight="700">H2</text>
  </g>

  <path d="M52 188c12-8 24-8 36 0s24 8 36 0 24-8 36 0 24 8 36 0v24H52v-24z" fill="url(#sem-water)" opacity="0.95"/>
  <path d="M52 200c10-6 20-6 30 0s20 6 30 0 20-6 30 0 20 6 30 0" stroke="#bae6fd" stroke-width="1.75" opacity="0.75"/>

  <g opacity="0.9">
    <circle cx="82" cy="142" r="12" stroke="#1d4ed8" stroke-width="1.75"/>
    <path d="M82 134v8l5 3" stroke="#0891b2" stroke-width="1.5" stroke-linecap="round"/>
    <circle cx="82" cy="142" r="1.5" fill="#0891b2"/>
  </g>

  <g opacity="0.85">
    <circle cx="176" cy="156" r="5" fill="#2563eb"/>
    <circle cx="192" cy="172" r="4" fill="#0891b2"/>
    <circle cx="168" cy="178" r="4" fill="#1d4ed8"/>
    <line x1="176" y1="156" x2="192" y2="172" stroke="#2563eb" stroke-width="1.25"/>
    <line x1="176" y1="156" x2="168" y2="178" stroke="#2563eb" stroke-width="1.25"/>
    <line x1="192" y1="172" x2="168" y2="178" stroke="#0891b2" stroke-width="1.25"/>
  </g>

  <path d="M188 118h14c6 0 10 4 10 10v8" stroke="#0891b2" stroke-width="2" stroke-linecap="round" opacity="0.55"/>
  <path d="M68 118H54c-6 0-10 4-10 10v8" stroke="#059669" stroke-width="2" stroke-linecap="round" opacity="0.55"/>
</svg>
