<svg xmlns="http://www.w3.org/2000/svg" viewBox="0 0 64 64" fill="none" role="img" aria-label="Nanjundan Lab">
  <defs>
    <linearGradient id="nl-grad" x1="10" y1="54" x2="54" y2="10" gradientUnits="userSpaceOnUse">
      <stop stop-color="#22d3ee"/>
      <stop offset="0.45" stop-color="#38bdf8"/>
      <stop offset="1" stop-color="#3b82f6"/>
    </linearGradient>
    <linearGradient id="nl-accent" x1="24" y1="18" x2="44" y2="48" gradientUnits="userSpaceOnUse">
      <stop stop-color="#34d399"/>
      <stop offset="1" stop-color="#22d3ee"/>
    </linearGradient>
    <radialGradient id="nl-glow" cx="32" cy="32" r="28" gradientUnits="userSpaceOnUse">
      <stop stop-color="#38bdf8" stop-opacity="0.18"/>
      <stop offset="1" stop-color="#020b1a" stop-opacity="0"/>
    </radialGradient>
  </defs>

  <circle cx="32" cy="32" r="30" fill="url(#nl-glow)"/>

  <path
    d="M32 5 52.2 16.6v23.2L32 51.4 11.8 39.8V16.6L32 5Z"
    stroke="url(#nl-grad)"
    stroke-width="1.75"
    stroke-linejoin="round"
    opacity="0.95"
  />
  <path
    d="M32 12.5 44.8 20v15L32 42.5 19.2 35V20L32 12.5Z"
    stroke="#38bdf8"
    stroke-width="0.9"
    stroke-linejoin="round"
    opacity="0.35"
  />

  <circle cx="32" cy="9" r="1.6" fill="#22d3ee" opacity="0.85"/>
  <circle cx="14.5" cy="18.5" r="1.4" fill="#38bdf8" opacity="0.7"/>
  <circle cx="49.5" cy="18.5" r="1.4" fill="#38bdf8" opacity="0.7"/>
  <circle cx="14.5" cy="42" r="1.4" fill="#3b82f6" opacity="0.7"/>
  <circle cx="49.5" cy="42" r="1.4" fill="#3b82f6" opacity="0.7"/>
  <circle cx="32" cy="51.5" r="1.6" fill="#22d3ee" opacity="0.85"/>

  <g transform="translate(3.5 -4)">
    <ellipse cx="32" cy="30" rx="17" ry="7.5" stroke="#38bdf8" stroke-width="0.85" opacity="0.45" transform="rotate(-28 32 30)"/>
    <ellipse cx="32" cy="30" rx="17" ry="7.5" stroke="#22d3ee" stroke-width="0.85" opacity="0.45" transform="rotate(28 32 30)"/>
    <circle cx="21" cy="26" r="2" fill="#34d399" opacity="0.9"/>
    <circle cx="43" cy="26" r="2" fill="#22d3ee" opacity="0.9"/>
    <circle cx="32" cy="36" r="2" fill="#3b82f6" opacity="0.85"/>
    <path
      d="M20.5 46.5V21.5M20.5 21.5 31 34.5 26.5 34.5 36.5 46.5M36.5 46.5V21.5"
      stroke="url(#nl-grad)"
      stroke-width="3.25"
      stroke-linecap="round"
      stroke-linejoin="round"
    />
    <path
      d="M22 23.5 29.5 33.5 25.5 33.5 34.5 44"
      stroke="url(#nl-accent)"
      stroke-width="2"
      stroke-linecap="round"
      stroke-linejoin="round"
    />
  </g>
</svg>
