<svg xmlns="http://www.w3.org/2000/svg" viewBox="0 0 256 256" role="img" aria-label="ORCID">
  <path fill="#A6CE39" d="M256 128c0 70.7-57.3 128-128 128C57.3 256 0 198.7 0 128 0 57.3 57.3 0 128 0c70.7 0 128 57.3 128 128z"/>
  <path fill="#fff" d="M86.3 186.2H70.9V79.1h15.4v34.6h.3c1.6-2.8 3.6-5.4 6.1-7.9 2.5-2.5 5.5-4.5 8.9-6.1 3.4-1.6 7.3-2.4 11.6-2.4 4 0 7.8.8 11.3 2.3 3.5 1.5 6.6 3.8 9.2 6.8 2.6 3 4.6 6.8 6 11.3 1.4 4.5 2.1 9.8 2.1 15.8v70.9h-15.4v-66.4c0-6.5-1.6-11.5-4.8-15.1-3.2-3.6-7.6-5.4-13.2-5.4-3.8 0-7.3.9-10.4 2.6-3.1 1.7-5.6 4.1-7.4 7.2-1.8 3.1-2.7 6.8-2.7 11.1v65.9z"/>
  <path fill="#fff" d="M177.7 186.2c-4.5 1.7-9.2 2.9-14.1 3.7-4.9.8-10.1 1.2-15.6 1.2-7.8 0-14.9-1.2-21.3-3.5-6.4-2.3-11.9-5.7-16.5-10.1-4.6-4.4-8.1-9.8-10.6-16.1-2.5-6.3-3.7-13.5-3.7-21.5 0-7.6 1.2-14.6 3.7-21 2.5-6.4 6-11.9 10.5-16.5 4.5-4.6 9.9-8.1 16.2-10.6 6.3-2.5 13.3-3.7 21-3.7 4.9 0 9.5.5 13.8 1.5 4.3 1 8.4 2.4 12.2 4.2v16.1c-3.9-2.4-8.2-4.3-12.8-5.8-4.6-1.5-9.6-2.2-14.9-2.2-5.2 0-9.9 1-14.2 3.1-4.3 2.1-8 5-11.1 8.8-3.1 3.8-5.5 8.3-7.2 13.6-1.7 5.3-2.5 11.2-2.5 17.8 0 6.7.8 12.6 2.5 17.9 1.7 5.3 4.1 9.8 7.2 13.5 3.1 3.7 6.8 6.5 11.1 8.5 4.3 2 9 3 14.1 3 5.6 0 10.7-.8 15.3-2.5 4.6-1.7 8.5-3.9 11.7-6.7v15.8H177.7z"/>
</svg>
