<svg xmlns="http://www.w3.org/2000/svg" viewBox="0 0 180 180" fill="none">
  <rect width="180" height="180" rx="40" fill="#020b1a"/>
  <defs>
    <linearGradient id="apple-grad" x1="28" y1="152" x2="152" y2="28" gradientUnits="userSpaceOnUse">
      <stop stop-color="#22d3ee"/>
      <stop offset="0.45" stop-color="#38bdf8"/>
      <stop offset="1" stop-color="#3b82f6"/>
    </linearGradient>
    <linearGradient id="apple-accent" x1="68" y1="50" x2="124" y2="135" gradientUnits="userSpaceOnUse">
      <stop stop-color="#34d399"/>
      <stop offset="1" stop-color="#22d3ee"/>
    </linearGradient>
  </defs>
  <g transform="translate(18 18) scale(2.25)">
    <path
      d="M32 5 52.2 16.6v23.2L32 51.4 11.8 39.8V16.6L32 5Z"
      stroke="url(#apple-grad)"
      stroke-width="1.75"
      stroke-linejoin="round"
    />
    <path
      d="M32 12.5 44.8 20v15L32 42.5 19.2 35V20L32 12.5Z"
      stroke="#38bdf8"
      stroke-width="0.9"
      stroke-linejoin="round"
      opacity="0.35"
    />
    <g transform="translate(3.5 -4)">
      <ellipse cx="32" cy="30" rx="17" ry="7.5" stroke="#38bdf8" stroke-width="0.85" opacity="0.45" transform="rotate(-28 32 30)"/>
      <ellipse cx="32" cy="30" rx="17" ry="7.5" stroke="#22d3ee" stroke-width="0.85" opacity="0.45" transform="rotate(28 32 30)"/>
      <path
        d="M20.5 46.5V21.5M20.5 21.5 31 34.5 26.5 34.5 36.5 46.5M36.5 46.5V21.5"
        stroke="url(#apple-grad)"
        stroke-width="3.25"
        stroke-linecap="round"
        stroke-linejoin="round"
      />
      <path
        d="M22 23.5 29.5 33.5 25.5 33.5 34.5 44"
        stroke="url(#apple-accent)"
        stroke-width="2"
        stroke-linecap="round"
        stroke-linejoin="round"
      />
    </g>
  </g>
</svg>
